<svg version="1.1" xmlns="http://www.w3.org/2000/svg" xmlns:xlink="http://www.w3.org/1999/xlink" width="980" height="700"><defs><clipPath id="ThxWgICBqbnv"><path fill="none" stroke="none" d=" M 0 0 L 980 0 L 980 700 L 0 700 L 0 0 Z"/></clipPath></defs><g transform="scale(1,1)" clip-path="url(#ThxWgICBqbnv)"><g><rect fill="rgb(255,255,255)" stroke="none" x="0" y="0" width="980" height="700" fill-opacity="1"/><path fill="rgb(64,64,64)" stroke="none" paint-order="stroke fill markers" d=" M 432.99227967995256 352.98740476449893 C 451.46031151150805 332.0356757068766 441.6039640714216 293.16646113312345 410.9775115067412 266.1705841199864 C 380.3510589420608 239.17470710684933 340.5521157879664 234.27495708696912 322.0840839564109 255.22668614459153 C 303.6160521248554 276.1784152022139 313.47239956494184 315.047629775967 344.09885212962223 342.0435067891041 C 374.7253046943027 369.03938380224116 414.52424784839707 373.93913382212133 432.99227967995256 352.98740476449893 Z" fill-opacity="0.5294117647058824"/><path fill="none" stroke="rgb(64,64,64)" paint-order="fill stroke markers" d=" M 432.99227967995256 352.98740476449893 C 451.46031151150805 332.0356757068766 441.6039640714216 293.16646113312345 410.9775115067412 266.1705841199864 C 380.3510589420608 239.17470710684933 340.5521157879664 234.27495708696912 322.0840839564109 255.22668614459153 C 303.6160521248554 276.1784152022139 313.47239956494184 315.047629775967 344.09885212962223 342.0435067891041 C 374.7253046943027 369.03938380224116 414.52424784839707 373.93913382212133 432.99227967995256 352.98740476449893 Z" stroke-opacity="0.6980392156862745" stroke-linecap="round" stroke-linejoin="round" stroke-miterlimit="10" stroke-width="2.5"/><path fill="rgb(64,64,64)" stroke="none" paint-order="stroke fill markers" d=" M 402.97862941095644 352.987404764499 C 384.51059757940095 332.0356757068766 394.3669450194874 293.1664611331235 424.9933975841678 266.1705841199864 C 455.61985014884823 239.17470710684933 495.4187933029426 234.27495708696912 513.886825134498 255.22668614459153 C 532.3548569660536 276.1784152022139 522.4985095259672 315.047629775967 491.8720569612868 342.0435067891041 C 461.2456043966063 369.03938380224116 421.44666124251194 373.93913382212133 402.97862941095644 352.987404764499 Z" fill-opacity="0.6588235294117647"/><path fill="none" stroke="rgb(64,64,64)" paint-order="fill stroke markers" d=" M 402.97862941095644 352.987404764499 C 384.51059757940095 332.0356757068766 394.3669450194874 293.1664611331235 424.9933975841678 266.1705841199864 C 455.61985014884823 239.17470710684933 495.4187933029426 234.27495708696912 513.886825134498 255.22668614459153 C 532.3548569660536 276.1784152022139 522.4985095259672 315.047629775967 491.8720569612868 342.0435067891041 C 461.2456043966063 369.03938380224116 421.44666124251194 373.93913382212133 402.97862941095644 352.987404764499 Z" stroke-opacity="0.6980392156862745" stroke-linecap="round" stroke-linejoin="round" stroke-miterlimit="10" stroke-width="2.5"/><path fill="rgb(64,64,64)" stroke="none" paint-order="stroke fill markers" d=" M 432.99227967995256 326.5316861445915 C 451.46031151150805 347.48341520221385 441.6039640714216 386.352629775967 410.9775115067412 413.348506789104 C 380.3510589420608 440.3443838022411 340.5521157879664 445.2441338221213 322.0840839564109 424.2924047644989 C 303.6160521248554 403.34067570687654 313.47239956494184 364.47146113312346 344.09885212962223 337.47558411998637 C 374.7253046943027 310.4797071068493 414.52424784839707 305.5799570869691 432.99227967995256 326.5316861445915 Z" fill-opacity="0.7176470588235294"/><path fill="none" stroke="rgb(64,64,64)" paint-order="fill stroke markers" d=" M 432.99227967995256 326.5316861445915 C 451.46031151150805 347.48341520221385 441.6039640714216 386.352629775967 410.9775115067412 413.348506789104 C 380.3510589420608 440.3443838022411 340.5521157879664 445.2441338221213 322.0840839564109 424.2924047644989 C 303.6160521248554 403.34067570687654 313.47239956494184 364.47146113312346 344.09885212962223 337.47558411998637 C 374.7253046943027 310.4797071068493 414.52424784839707 305.5799570869691 432.99227967995256 326.5316861445915 Z" stroke-opacity="0.6980392156862745" stroke-linecap="round" stroke-linejoin="round" stroke-miterlimit="10" stroke-width="2.5"/><path fill="rgb(64,64,64)" stroke="none" paint-order="stroke fill markers" d=" M 402.9786294109565 326.5316861445915 C 384.510597579401 347.4834152022139 394.36694501948745 386.352629775967 424.99339758416784 413.348506789104 C 455.6198501488483 440.3443838022411 495.4187933029427 445.2441338221213 513.8868251344982 424.2924047644989 C 532.3548569660536 403.3406757068765 522.4985095259673 364.4714611331234 491.87205696128683 337.47558411998637 C 461.2456043966064 310.4797071068493 421.446661242512 305.5799570869691 402.9786294109565 326.5316861445915 Z" fill-opacity="0.6862745098039216"/><path fill="none" stroke="rgb(64,64,64)" paint-order="fill stroke markers" d=" M 402.9786294109565 326.5316861445915 C 384.510597579401 347.4834152022139 394.36694501948745 386.352629775967 424.99339758416784 413.348506789104 C 455.6198501488483 440.3443838022411 495.4187933029427 445.2441338221213 513.8868251344982 424.2924047644989 C 532.3548569660536 403.3406757068765 522.4985095259673 364.4714611331234 491.87205696128683 337.47558411998637 C 461.2456043966064 310.4797071068493 421.446661242512 305.5799570869691 402.9786294109565 326.5316861445915 Z" stroke-opacity="0.6980392156862745" stroke-linecap="round" stroke-linejoin="round" stroke-miterlimit="10" stroke-width="2.5"/><path fill="none" stroke="rgb(0,0,0)" paint-order="fill stroke markers" d=" M 115.48545454545462 339.7595454545452 L 720.4854545454543 339.7595454545452" stroke-opacity="0.6980392156862745" stroke-linecap="round" stroke-linejoin="round" stroke-miterlimit="10" stroke-width="2.5"/><path fill="none" stroke="rgb(0,0,0)" paint-order="fill stroke markers" d=" M 417.9854545454545 37.25954545454482 L 417.9854545454545 642.2595454545456" stroke-opacity="0.6980392156862745" stroke-linecap="round" stroke-linejoin="round" stroke-miterlimit="10" stroke-width="2.5"/><path fill="rgb(77,77,255)" stroke="none" paint-order="stroke fill markers" d=" M 120.48545454545462 339.7595454545452 C 120.48545454545462 342.52096920369917 118.24687829460858 344.7595454545452 115.48545454545462 344.7595454545452 C 112.72403079630065 344.7595454545452 110.48545454545462 342.52096920369917 110.48545454545462 339.7595454545452 C 110.48545454545462 336.99812170539127 112.72403079630065 334.7595454545452 115.48545454545462 334.7595454545452 C 118.24687829460858 334.7595454545452 120.48545454545462 336.99812170539127 120.48545454545462 339.7595454545452 Z" fill-opacity="1"/><path fill="none" stroke="rgb(0,0,0)" paint-order="fill stroke markers" d=" M 120.48545454545462 339.7595454545452 C 120.48545454545462 342.52096920369917 118.24687829460858 344.7595454545452 115.48545454545462 344.7595454545452 C 112.72403079630065 344.7595454545452 110.48545454545462 342.52096920369917 110.48545454545462 339.7595454545452 C 110.48545454545462 336.99812170539127 112.72403079630065 334.7595454545452 115.48545454545462 334.7595454545452 C 118.24687829460858 334.7595454545452 120.48545454545462 336.99812170539127 120.48545454545462 339.7595454545452 Z" stroke-opacity="1" stroke-linecap="round" stroke-linejoin="round" stroke-miterlimit="10"/><path fill="rgb(77,77,255)" stroke="none" paint-order="stroke fill markers" d=" M 725.4854545454543 339.7595454545452 C 725.4854545454543 342.52096920369917 723.2468782946083 344.7595454545452 720.4854545454543 344.7595454545452 C 717.7240307963003 344.7595454545452 715.4854545454543 342.52096920369917 715.4854545454543 339.7595454545452 C 715.4854545454543 336.99812170539127 717.7240307963003 334.7595454545452 720.4854545454543 334.7595454545452 C 723.2468782946083 334.7595454545452 725.4854545454543 336.99812170539127 725.4854545454543 339.7595454545452 Z" fill-opacity="1"/><path fill="none" stroke="rgb(0,0,0)" paint-order="fill stroke markers" d=" M 725.4854545454543 339.7595454545452 C 725.4854545454543 342.52096920369917 723.2468782946083 344.7595454545452 720.4854545454543 344.7595454545452 C 717.7240307963003 344.7595454545452 715.4854545454543 342.52096920369917 715.4854545454543 339.7595454545452 C 715.4854545454543 336.99812170539127 717.7240307963003 334.7595454545452 720.4854545454543 334.7595454545452 C 723.2468782946083 334.7595454545452 725.4854545454543 336.99812170539127 725.4854545454543 339.7595454545452 Z" stroke-opacity="1" stroke-linecap="round" stroke-linejoin="round" stroke-miterlimit="10"/><path fill="rgb(77,77,255)" stroke="none" paint-order="stroke fill markers" d=" M 422.9854545454545 37.25954545454482 C 422.9854545454545 40.02096920369878 420.74687829460845 42.25954545454482 417.9854545454545 42.25954545454482 C 415.22403079630055 42.25954545454482 412.9854545454545 40.02096920369878 412.9854545454545 37.25954545454482 C 412.9854545454545 34.49812170539085 415.22403079630055 32.25954545454482 417.9854545454545 32.25954545454482 C 420.74687829460845 32.25954545454482 422.9854545454545 34.49812170539085 422.9854545454545 37.25954545454482 Z" fill-opacity="1"/><path fill="none" stroke="rgb(0,0,0)" paint-order="fill stroke markers" d=" M 422.9854545454545 37.25954545454482 C 422.9854545454545 40.02096920369878 420.74687829460845 42.25954545454482 417.9854545454545 42.25954545454482 C 415.22403079630055 42.25954545454482 412.9854545454545 40.02096920369878 412.9854545454545 37.25954545454482 C 412.9854545454545 34.49812170539085 415.22403079630055 32.25954545454482 417.9854545454545 32.25954545454482 C 420.74687829460845 32.25954545454482 422.9854545454545 34.49812170539085 422.9854545454545 37.25954545454482 Z" stroke-opacity="1" stroke-linecap="round" stroke-linejoin="round" stroke-miterlimit="10"/><path fill="rgb(77,77,255)" stroke="none" paint-order="stroke fill markers" d=" M 422.9854545454545 642.2595454545456 C 422.9854545454545 645.0209692036996 420.74687829460845 647.2595454545456 417.9854545454545 647.2595454545456 C 415.22403079630055 647.2595454545456 412.9854545454545 645.0209692036996 412.9854545454545 642.2595454545456 C 412.9854545454545 639.4981217053916 415.22403079630055 637.2595454545456 417.9854545454545 637.2595454545456 C 420.74687829460845 637.2595454545456 422.9854545454545 639.4981217053916 422.9854545454545 642.2595454545456 Z" fill-opacity="1"/><path fill="none" stroke="rgb(0,0,0)" paint-order="fill stroke markers" d=" M 422.9854545454545 642.2595454545456 C 422.9854545454545 645.0209692036996 420.74687829460845 647.2595454545456 417.9854545454545 647.2595454545456 C 415.22403079630055 647.2595454545456 412.9854545454545 645.0209692036996 412.9854545454545 642.2595454545456 C 412.9854545454545 639.4981217053916 415.22403079630055 637.2595454545456 417.9854545454545 637.2595454545456 C 420.74687829460845 637.2595454545456 422.9854545454545 639.4981217053916 422.9854545454545 642.2595454545456 Z" stroke-opacity="1" stroke-linecap="round" stroke-linejoin="round" stroke-miterlimit="10"/><path fill="rgb(68,68,68)" stroke="none" paint-order="stroke fill markers" d=" M 421.9854545454545 339.7595454545452 C 421.9854545454545 341.9686844538684 420.19459354477766 343.7595454545452 417.9854545454545 343.7595454545452 C 415.77631554613134 343.7595454545452 413.9854545454545 341.9686844538684 413.9854545454545 339.7595454545452 C 413.9854545454545 337.55040645522206 415.77631554613134 335.7595454545452 417.9854545454545 335.7595454545452 C 420.19459354477766 335.7595454545452 421.9854545454545 337.55040645522206 421.9854545454545 339.7595454545452 Z" fill-opacity="1"/><path fill="none" stroke="rgb(0,0,0)" paint-order="fill stroke markers" d=" M 421.9854545454545 339.7595454545452 C 421.9854545454545 341.9686844538684 420.19459354477766 343.7595454545452 417.9854545454545 343.7595454545452 C 415.77631554613134 343.7595454545452 413.9854545454545 341.9686844538684 413.9854545454545 339.7595454545452 C 413.9854545454545 337.55040645522206 415.77631554613134 335.7595454545452 417.9854545454545 335.7595454545452 C 420.19459354477766 335.7595454545452 421.9854545454545 337.55040645522206 421.9854545454545 339.7595454545452 Z" stroke-opacity="1" stroke-linecap="round" stroke-linejoin="round" stroke-miterlimit="10"/><g transform="scale(19,19)"><g transform="translate(27.68421052631579,9.904971315789474)"><path fill="rgb(0,0,0)" stroke="none" paint-order="stroke fill markers" d=" M 0.516 -0.683 L 0.372 -0.105 Q 0.366 -0.08 0.366 -0.057 Q 0.366 -0.011 0.396 -0.011 Q 0.434 -0.011 0.46 -0.091 Q 0.465 -0.108 0.47200000000000003 -0.135 Q 0.48 -0.152 0.486 -0.153 Q 0.498 -0.153 0.498 -0.14300000000000002 Q 0.498 -0.128 0.48 -0.073 Q 0.47400000000000003 -0.056 0.468 -0.044 Q 0.44 0.011 0.394 0.011 Q 0.338 0.011 0.313 -0.037 Q 0.306 -0.049 0.303 -0.064 Q 0.24 0.011 0.17300000000000001 0.011 Q 0.098 0.011 0.062 -0.057 Q 0.04 -0.097 0.04 -0.149 Q 0.04 -0.257 0.115 -0.34900000000000003 Q 0.185 -0.433 0.267 -0.441 Q 0.274 -0.442 0.281 -0.442 Q 0.342 -0.442 0.373 -0.378 L 0.433 -0.615 L 0.436 -0.635 Q 0.436 -0.646 0.422 -0.649 Q 0.41000000000000003 -0.652 0.386 -0.652 Q 0.364 -0.652 0.362 -0.664 Q 0.362 -0.681 0.376 -0.683 Q 0.47000000000000003 -0.6940000000000001 0.503 -0.6940000000000001 Q 0.516 -0.6940000000000001 0.516 -0.683 M 0.308 -0.11900000000000001 L 0.308 -0.11900000000000001 L 0.358 -0.315 Q 0.361 -0.33 0.361 -0.332 Q 0.361 -0.353 0.343 -0.383 Q 0.321 -0.42 0.28200000000000003 -0.42 Q 0.23 -0.42 0.183 -0.352 Q 0.17400000000000002 -0.339 0.166 -0.324 Q 0.137 -0.266 0.117 -0.159 Q 0.111 -0.125 0.111 -0.105 Q 0.111 -0.037 0.149 -0.017 Q 0.16 -0.011 0.17500000000000002 -0.011 Q 0.231 -0.011 0.28800000000000003 -0.082 Q 0.302 -0.098 0.307 -0.115 L 0.307 -0.116 Q 0.308 -0.11800000000000001 0.308 -0.11900000000000001 Z"/></g><g transform="translate(28.20469852631579,10.054971315789475) scale(0.7,0.7)"><path fill="rgb(0,0,0)" stroke="none" paint-order="stroke fill markers" d=" M 0.334 -0.302 L 0.3 -0.165 Q 0.28300000000000003 -0.097 0.28300000000000003 -0.077 Q 0.28300000000000003 -0.025 0.32 -0.014 Q 0.328 -0.011 0.338 -0.011 Q 0.388 -0.011 0.429 -0.061 Q 0.456 -0.093 0.47100000000000003 -0.14200000000000002 Q 0.47400000000000003 -0.153 0.484 -0.153 Q 0.496 -0.153 0.496 -0.14300000000000002 Q 0.496 -0.11800000000000001 0.465 -0.07100000000000001 Q 0.41100000000000003 0.011 0.336 0.011 Q 0.268 0.011 0.23700000000000002 -0.046 Q 0.231 -0.055 0.228 -0.065 Q 0.20400000000000001 -0.017 0.162 0.002 Q 0.14300000000000002 0.011 0.123 0.011 Q 0.063 0.011 0.039 -0.024 Q 0.029 -0.037 0.029 -0.055 Q 0.029 -0.092 0.061 -0.107 Q 0.07200000000000001 -0.113 0.084 -0.113 Q 0.114 -0.113 0.12 -0.088 Q 0.121 -0.083 0.121 -0.078 Q 0.121 -0.044 0.08700000000000001 -0.028 Q 0.081 -0.025 0.074 -0.024 Q 0.095 -0.011 0.124 -0.011 Q 0.177 -0.011 0.20800000000000002 -0.082 Q 0.214 -0.097 0.219 -0.115 Q 0.273 -0.319 0.273 -0.353 Q 0.267 -0.41500000000000004 0.219 -0.42 Q 0.167 -0.42 0.124 -0.367 L 0.124 -0.366 Q 0.124 -0.365 0.123 -0.365 Q 0.108 -0.34500000000000003 0.096 -0.319 Q 0.091 -0.307 0.08700000000000001 -0.295 L 0.085 -0.289 Q 0.083 -0.278 0.07200000000000001 -0.278 Q 0.06 -0.278 0.06 -0.28800000000000003 Q 0.06 -0.313 0.092 -0.36 Q 0.146 -0.442 0.221 -0.442 Q 0.298 -0.442 0.329 -0.366 Q 0.361 -0.428 0.41400000000000003 -0.44 Q 0.424 -0.442 0.434 -0.442 Q 0.493 -0.442 0.517 -0.40900000000000003 Q 0.527 -0.395 0.527 -0.376 Q 0.527 -0.335 0.49 -0.321 Q 0.481 -0.318 0.47300000000000003 -0.318 Q 0.442 -0.318 0.436 -0.34500000000000003 Q 0.435 -0.34900000000000003 0.435 -0.353 Q 0.435 -0.383 0.464 -0.4 Q 0.47300000000000003 -0.405 0.483 -0.40700000000000003 Q 0.462 -0.42 0.433 -0.42 Q 0.365 -0.42 0.337 -0.314 Q 0.335 -0.308 0.334 -0.302 Z"/></g><g transform="translate(28.60476812631579,10.054971315789475) scale(0.7,0.7)"><path fill="rgb(0,0,0)" stroke="none" paint-order="stroke fill markers" d=" M 0.486 -0.381 L 0.39 0.001 Q 0.366 0.099 0.28300000000000003 0.16 Q 0.222 0.20500000000000002 0.156 0.20500000000000002 Q 0.089 0.20500000000000002 0.061 0.159 Q 0.05 0.14 0.05 0.11800000000000001 Q 0.05 0.067 0.091 0.055 Q 0.099 0.053 0.106 0.053 Q 0.138 0.053 0.14200000000000002 0.081 Q 0.14300000000000002 0.084 0.14300000000000002 0.088 Q 0.14300000000000002 0.111 0.123 0.129 Q 0.109 0.14100000000000001 0.08 0.14100000000000001 Q 0.098 0.183 0.156 0.183 Q 0.218 0.183 0.266 0.12 Q 0.305 0.068 0.328 -0.021 Q 0.329 -0.025 0.331 -0.034 Q 0.28600000000000003 0.011 0.23 0.011 Q 0.15 0.011 0.121 -0.048 Q 0.108 -0.074 0.108 -0.108 Q 0.108 -0.163 0.161 -0.305 Q 0.163 -0.311 0.166 -0.318 Q 0.183 -0.364 0.183 -0.388 Q 0.183 -0.42 0.158 -0.42 Q 0.10300000000000001 -0.42 0.068 -0.329 L 0.068 -0.328 Q 0.062 -0.313 0.057 -0.296 Q 0.046 -0.279 0.041 -0.278 Q 0.029 -0.278 0.029 -0.28800000000000003 Q 0.029 -0.306 0.05 -0.35100000000000003 Q 0.094 -0.442 0.161 -0.442 Q 0.214 -0.442 0.23500000000000001 -0.397 Q 0.243 -0.38 0.243 -0.36 Q 0.243 -0.339 0.223 -0.28800000000000003 Q 0.17200000000000001 -0.156 0.17200000000000001 -0.092 Q 0.17200000000000001 -0.011 0.234 -0.011 Q 0.292 -0.011 0.335 -0.073 Q 0.34500000000000003 -0.088 0.34700000000000003 -0.096 L 0.392 -0.276 Q 0.399 -0.309 0.41200000000000003 -0.356 Q 0.422 -0.399 0.426 -0.41000000000000003 Q 0.439 -0.431 0.461 -0.431 Q 0.486 -0.426 0.49 -0.404 Q 0.49 -0.395 0.486 -0.381 Z"/></g><g transform="translate(28.97308082631579,9.904971315789474)"><path fill="rgb(0,0,0)" stroke="none" paint-order="stroke fill markers" d=" M 0.203 -0.001 L 0.203 -0.001 Q 0.203 0.096 0.14 0.169 Q 0.123 0.189 0.112 0.193 Q 0.10200000000000001 0.193 0.10200000000000001 0.182 Q 0.10200000000000001 0.177 0.113 0.166 Q 0.17300000000000001 0.106 0.18 0.019 Q 0.181 0.009000000000000001 0.181 -0.001 Q 0.181 -0.016 0.179 -0.016 Q 0.178 -0.016 0.17400000000000002 -0.013000000000000001 Q 0.16 0 0.139 0 Q 0.10200000000000001 0 0.09 -0.034 Q 0.08600000000000001 -0.043000000000000003 0.08600000000000001 -0.053 Q 0.08600000000000001 -0.089 0.117 -0.10200000000000001 Q 0.127 -0.106 0.139 -0.106 Q 0.183 -0.106 0.198 -0.048 Q 0.203 -0.027 0.203 -0.001 Z"/></g><g transform="translate(29.417526992982456,9.904971315789474)"><path fill="rgb(0,0,0)" stroke="none" paint-order="stroke fill markers" d=" M 0.516 -0.683 L 0.372 -0.105 Q 0.366 -0.08 0.366 -0.057 Q 0.366 -0.011 0.396 -0.011 Q 0.434 -0.011 0.46 -0.091 Q 0.465 -0.108 0.47200000000000003 -0.135 Q 0.48 -0.152 0.486 -0.153 Q 0.498 -0.153 0.498 -0.14300000000000002 Q 0.498 -0.128 0.48 -0.073 Q 0.47400000000000003 -0.056 0.468 -0.044 Q 0.44 0.011 0.394 0.011 Q 0.338 0.011 0.313 -0.037 Q 0.306 -0.049 0.303 -0.064 Q 0.24 0.011 0.17300000000000001 0.011 Q 0.098 0.011 0.062 -0.057 Q 0.04 -0.097 0.04 -0.149 Q 0.04 -0.257 0.115 -0.34900000000000003 Q 0.185 -0.433 0.267 -0.441 Q 0.274 -0.442 0.281 -0.442 Q 0.342 -0.442 0.373 -0.378 L 0.433 -0.615 L 0.436 -0.635 Q 0.436 -0.646 0.422 -0.649 Q 0.41000000000000003 -0.652 0.386 -0.652 Q 0.364 -0.652 0.362 -0.664 Q 0.362 -0.681 0.376 -0.683 Q 0.47000000000000003 -0.6940000000000001 0.503 -0.6940000000000001 Q 0.516 -0.6940000000000001 0.516 -0.683 M 0.308 -0.11900000000000001 L 0.308 -0.11900000000000001 L 0.358 -0.315 Q 0.361 -0.33 0.361 -0.332 Q 0.361 -0.353 0.343 -0.383 Q 0.321 -0.42 0.28200000000000003 -0.42 Q 0.23 -0.42 0.183 -0.352 Q 0.17400000000000002 -0.339 0.166 -0.324 Q 0.137 -0.266 0.117 -0.159 Q 0.111 -0.125 0.111 -0.105 Q 0.111 -0.037 0.149 -0.017 Q 0.16 -0.011 0.17500000000000002 -0.011 Q 0.231 -0.011 0.28800000000000003 -0.082 Q 0.302 -0.098 0.307 -0.115 L 0.307 -0.116 Q 0.308 -0.11800000000000001 0.308 -0.11900000000000001 Z"/></g><g transform="translate(29.938014992982456,10.054971315789475) scale(0.7,0.7)"><path fill="rgb(0,0,0)" stroke="none" paint-order="stroke fill markers" d=" M 0.486 -0.381 L 0.39 0.001 Q 0.366 0.099 0.28300000000000003 0.16 Q 0.222 0.20500000000000002 0.156 0.20500000000000002 Q 0.089 0.20500000000000002 0.061 0.159 Q 0.05 0.14 0.05 0.11800000000000001 Q 0.05 0.067 0.091 0.055 Q 0.099 0.053 0.106 0.053 Q 0.138 0.053 0.14200000000000002 0.081 Q 0.14300000000000002 0.084 0.14300000000000002 0.088 Q 0.14300000000000002 0.111 0.123 0.129 Q 0.109 0.14100000000000001 0.08 0.14100000000000001 Q 0.098 0.183 0.156 0.183 Q 0.218 0.183 0.266 0.12 Q 0.305 0.068 0.328 -0.021 Q 0.329 -0.025 0.331 -0.034 Q 0.28600000000000003 0.011 0.23 0.011 Q 0.15 0.011 0.121 -0.048 Q 0.108 -0.074 0.108 -0.108 Q 0.108 -0.163 0.161 -0.305 Q 0.163 -0.311 0.166 -0.318 Q 0.183 -0.364 0.183 -0.388 Q 0.183 -0.42 0.158 -0.42 Q 0.10300000000000001 -0.42 0.068 -0.329 L 0.068 -0.328 Q 0.062 -0.313 0.057 -0.296 Q 0.046 -0.279 0.041 -0.278 Q 0.029 -0.278 0.029 -0.28800000000000003 Q 0.029 -0.306 0.05 -0.35100000000000003 Q 0.094 -0.442 0.161 -0.442 Q 0.214 -0.442 0.23500000000000001 -0.397 Q 0.243 -0.38 0.243 -0.36 Q 0.243 -0.339 0.223 -0.28800000000000003 Q 0.17200000000000001 -0.156 0.17200000000000001 -0.092 Q 0.17200000000000001 -0.011 0.234 -0.011 Q 0.292 -0.011 0.335 -0.073 Q 0.34500000000000003 -0.088 0.34700000000000003 -0.096 L 0.392 -0.276 Q 0.399 -0.309 0.41200000000000003 -0.356 Q 0.422 -0.399 0.426 -0.41000000000000003 Q 0.439 -0.431 0.461 -0.431 Q 0.486 -0.426 0.49 -0.404 Q 0.49 -0.395 0.486 -0.381 Z"/></g><g transform="translate(30.306327692982457,10.054971315789475) scale(0.7,0.7)"><path fill="rgb(0,0,0)" stroke="none" paint-order="stroke fill markers" d=" M 0.133 -0.083 L 0.133 -0.083 Q 0.14200000000000002 -0.08600000000000001 0.16 -0.08600000000000001 Q 0.186 -0.08600000000000001 0.23 -0.069 Q 0.269 -0.056 0.289 -0.056 Q 0.342 -0.056 0.38 -0.094 Q 0.4 -0.113 0.40900000000000003 -0.14 Q 0.41500000000000004 -0.153 0.423 -0.153 Q 0.435 -0.153 0.435 -0.14300000000000002 Q 0.435 -0.117 0.403 -0.069 Q 0.34900000000000003 0.011 0.278 0.011 Q 0.244 0.011 0.214 -0.026000000000000002 Q 0.186 -0.059000000000000004 0.169 -0.063 Q 0.164 -0.064 0.156 -0.064 Q 0.112 -0.064 0.07100000000000001 -0.002 Q 0.064 0.011 0.055 0.011 Q 0.043000000000000003 0.011 0.043000000000000003 0.001 Q 0.043000000000000003 -0.011 0.089 -0.067 Q 0.115 -0.099 0.146 -0.13 L 0.23600000000000002 -0.214 Q 0.335 -0.298 0.375 -0.34500000000000003 Q 0.339 -0.34500000000000003 0.298 -0.36 Q 0.255 -0.375 0.23500000000000001 -0.375 Q 0.177 -0.375 0.155 -0.337 Q 0.152 -0.333 0.15 -0.328 Q 0.146 -0.317 0.137 -0.317 Q 0.125 -0.317 0.125 -0.328 Q 0.125 -0.35000000000000003 0.154 -0.388 Q 0.194 -0.442 0.246 -0.442 Q 0.279 -0.442 0.308 -0.40700000000000003 L 0.309 -0.406 Q 0.311 -0.403 0.315 -0.399 Q 0.339 -0.372 0.354 -0.368 Q 0.36 -0.367 0.366 -0.367 Q 0.4 -0.367 0.437 -0.425 L 0.441 -0.431 Q 0.447 -0.442 0.456 -0.442 Q 0.467 -0.442 0.467 -0.432 Q 0.467 -0.42 0.425 -0.368 Q 0.395 -0.331 0.35000000000000003 -0.28700000000000003 Q 0.34400000000000003 -0.281 0.255 -0.2 L 0.252 -0.197 Q 0.187 -0.14100000000000001 0.133 -0.083 Z"/></g><g transform="translate(30.662649392982456,9.904971315789474)"><path fill="rgb(0,0,0)" stroke="none" paint-order="stroke fill markers" d=" M 0.203 -0.001 L 0.203 -0.001 Q 0.203 0.096 0.14 0.169 Q 0.123 0.189 0.112 0.193 Q 0.10200000000000001 0.193 0.10200000000000001 0.182 Q 0.10200000000000001 0.177 0.113 0.166 Q 0.17300000000000001 0.106 0.18 0.019 Q 0.181 0.009000000000000001 0.181 -0.001 Q 0.181 -0.016 0.179 -0.016 Q 0.178 -0.016 0.17400000000000002 -0.013000000000000001 Q 0.16 0 0.139 0 Q 0.10200000000000001 0 0.09 -0.034 Q 0.08600000000000001 -0.043000000000000003 0.08600000000000001 -0.053 Q 0.08600000000000001 -0.089 0.117 -0.10200000000000001 Q 0.127 -0.106 0.139 -0.106 Q 0.183 -0.106 0.198 -0.048 Q 0.203 -0.027 0.203 -0.001 Z"/></g><g transform="translate(31.10709555964912,9.904971315789474)"><path fill="rgb(0,0,0)" stroke="none" paint-order="stroke fill markers" d=" M 0.516 -0.683 L 0.372 -0.105 Q 0.366 -0.08 0.366 -0.057 Q 0.366 -0.011 0.396 -0.011 Q 0.434 -0.011 0.46 -0.091 Q 0.465 -0.108 0.47200000000000003 -0.135 Q 0.48 -0.152 0.486 -0.153 Q 0.498 -0.153 0.498 -0.14300000000000002 Q 0.498 -0.128 0.48 -0.073 Q 0.47400000000000003 -0.056 0.468 -0.044 Q 0.44 0.011 0.394 0.011 Q 0.338 0.011 0.313 -0.037 Q 0.306 -0.049 0.303 -0.064 Q 0.24 0.011 0.17300000000000001 0.011 Q 0.098 0.011 0.062 -0.057 Q 0.04 -0.097 0.04 -0.149 Q 0.04 -0.257 0.115 -0.34900000000000003 Q 0.185 -0.433 0.267 -0.441 Q 0.274 -0.442 0.281 -0.442 Q 0.342 -0.442 0.373 -0.378 L 0.433 -0.615 L 0.436 -0.635 Q 0.436 -0.646 0.422 -0.649 Q 0.41000000000000003 -0.652 0.386 -0.652 Q 0.364 -0.652 0.362 -0.664 Q 0.362 -0.681 0.376 -0.683 Q 0.47000000000000003 -0.6940000000000001 0.503 -0.6940000000000001 Q 0.516 -0.6940000000000001 0.516 -0.683 M 0.308 -0.11900000000000001 L 0.308 -0.11900000000000001 L 0.358 -0.315 Q 0.361 -0.33 0.361 -0.332 Q 0.361 -0.353 0.343 -0.383 Q 0.321 -0.42 0.28200000000000003 -0.42 Q 0.23 -0.42 0.183 -0.352 Q 0.17400000000000002 -0.339 0.166 -0.324 Q 0.137 -0.266 0.117 -0.159 Q 0.111 -0.125 0.111 -0.105 Q 0.111 -0.037 0.149 -0.017 Q 0.16 -0.011 0.17500000000000002 -0.011 Q 0.231 -0.011 0.28800000000000003 -0.082 Q 0.302 -0.098 0.307 -0.115 L 0.307 -0.116 Q 0.308 -0.11800000000000001 0.308 -0.11900000000000001 Z"/></g><g transform="translate(31.62758355964912,10.054971315789475) scale(0.7,0.7)"><path fill="rgb(0,0,0)" stroke="none" paint-order="stroke fill markers" d=" M 0.133 -0.083 L 0.133 -0.083 Q 0.14200000000000002 -0.08600000000000001 0.16 -0.08600000000000001 Q 0.186 -0.08600000000000001 0.23 -0.069 Q 0.269 -0.056 0.289 -0.056 Q 0.342 -0.056 0.38 -0.094 Q 0.4 -0.113 0.40900000000000003 -0.14 Q 0.41500000000000004 -0.153 0.423 -0.153 Q 0.435 -0.153 0.435 -0.14300000000000002 Q 0.435 -0.117 0.403 -0.069 Q 0.34900000000000003 0.011 0.278 0.011 Q 0.244 0.011 0.214 -0.026000000000000002 Q 0.186 -0.059000000000000004 0.169 -0.063 Q 0.164 -0.064 0.156 -0.064 Q 0.112 -0.064 0.07100000000000001 -0.002 Q 0.064 0.011 0.055 0.011 Q 0.043000000000000003 0.011 0.043000000000000003 0.001 Q 0.043000000000000003 -0.011 0.089 -0.067 Q 0.115 -0.099 0.146 -0.13 L 0.23600000000000002 -0.214 Q 0.335 -0.298 0.375 -0.34500000000000003 Q 0.339 -0.34500000000000003 0.298 -0.36 Q 0.255 -0.375 0.23500000000000001 -0.375 Q 0.177 -0.375 0.155 -0.337 Q 0.152 -0.333 0.15 -0.328 Q 0.146 -0.317 0.137 -0.317 Q 0.125 -0.317 0.125 -0.328 Q 0.125 -0.35000000000000003 0.154 -0.388 Q 0.194 -0.442 0.246 -0.442 Q 0.279 -0.442 0.308 -0.40700000000000003 L 0.309 -0.406 Q 0.311 -0.403 0.315 -0.399 Q 0.339 -0.372 0.354 -0.368 Q 0.36 -0.367 0.366 -0.367 Q 0.4 -0.367 0.437 -0.425 L 0.441 -0.431 Q 0.447 -0.442 0.456 -0.442 Q 0.467 -0.442 0.467 -0.432 Q 0.467 -0.42 0.425 -0.368 Q 0.395 -0.331 0.35000000000000003 -0.28700000000000003 Q 0.34400000000000003 -0.281 0.255 -0.2 L 0.252 -0.197 Q 0.187 -0.14100000000000001 0.133 -0.083 Z"/></g><g transform="translate(31.98390525964912,10.054971315789475) scale(0.7,0.7)"><path fill="rgb(0,0,0)" stroke="none" paint-order="stroke fill markers" d=" M 0.334 -0.302 L 0.3 -0.165 Q 0.28300000000000003 -0.097 0.28300000000000003 -0.077 Q 0.28300000000000003 -0.025 0.32 -0.014 Q 0.328 -0.011 0.338 -0.011 Q 0.388 -0.011 0.429 -0.061 Q 0.456 -0.093 0.47100000000000003 -0.14200000000000002 Q 0.47400000000000003 -0.153 0.484 -0.153 Q 0.496 -0.153 0.496 -0.14300000000000002 Q 0.496 -0.11800000000000001 0.465 -0.07100000000000001 Q 0.41100000000000003 0.011 0.336 0.011 Q 0.268 0.011 0.23700000000000002 -0.046 Q 0.231 -0.055 0.228 -0.065 Q 0.20400000000000001 -0.017 0.162 0.002 Q 0.14300000000000002 0.011 0.123 0.011 Q 0.063 0.011 0.039 -0.024 Q 0.029 -0.037 0.029 -0.055 Q 0.029 -0.092 0.061 -0.107 Q 0.07200000000000001 -0.113 0.084 -0.113 Q 0.114 -0.113 0.12 -0.088 Q 0.121 -0.083 0.121 -0.078 Q 0.121 -0.044 0.08700000000000001 -0.028 Q 0.081 -0.025 0.074 -0.024 Q 0.095 -0.011 0.124 -0.011 Q 0.177 -0.011 0.20800000000000002 -0.082 Q 0.214 -0.097 0.219 -0.115 Q 0.273 -0.319 0.273 -0.353 Q 0.267 -0.41500000000000004 0.219 -0.42 Q 0.167 -0.42 0.124 -0.367 L 0.124 -0.366 Q 0.124 -0.365 0.123 -0.365 Q 0.108 -0.34500000000000003 0.096 -0.319 Q 0.091 -0.307 0.08700000000000001 -0.295 L 0.085 -0.289 Q 0.083 -0.278 0.07200000000000001 -0.278 Q 0.06 -0.278 0.06 -0.28800000000000003 Q 0.06 -0.313 0.092 -0.36 Q 0.146 -0.442 0.221 -0.442 Q 0.298 -0.442 0.329 -0.366 Q 0.361 -0.428 0.41400000000000003 -0.44 Q 0.424 -0.442 0.434 -0.442 Q 0.493 -0.442 0.517 -0.40900000000000003 Q 0.527 -0.395 0.527 -0.376 Q 0.527 -0.335 0.49 -0.321 Q 0.481 -0.318 0.47300000000000003 -0.318 Q 0.442 -0.318 0.436 -0.34500000000000003 Q 0.435 -0.34900000000000003 0.435 -0.353 Q 0.435 -0.383 0.464 -0.4 Q 0.47300000000000003 -0.405 0.483 -0.40700000000000003 Q 0.462 -0.42 0.433 -0.42 Q 0.365 -0.42 0.337 -0.314 Q 0.335 -0.308 0.334 -0.302 Z"/></g></g></g></g></svg>